#!OML:ASF E:\emotionWalksFemale\Project 1\Capture day 1\Session 1\Female1.ASF
:FULLY-SPECIFIED
:DEGREES
2625
root 8.75658 15.1385 31.9315 -1.03301 -1.35959 -4.86409
lowerback 4.88932 0.115269 2.53104
upperback 2.82109 0.26468 2.75959
thorax 0.157851 0.140151 1.40187
lowerneck -7.45434 -0.334498 -7.93709
upperneck 48.321 1.55727 0.487459
head 20.3503 -0.790906 1.98842
rclavicle -1.04362e-015 3.1408e-014
rhumerus -34.1938 12.4355 -87.0803
rradius 29.2443
rwrist 19.3798
rhand -2.94387 -50.9067
rfingers 7.12502
rthumb 22.7678 -79.5832
lclavicle -1.04362e-015 3.1408e-014
lhumerus -34.0385 17.1685 80.7035
lradius 33.5779
lwrist -18.9263
lhand -6.72653 -34.2057
lfingers 7.12502
lthumb 19.1338 -5.12694
rfemur 11.2137 11.722 38.4851
rtibia 8.28526
rfoot -16.8417 -24.7954
rtoes 8.934
lfemur -28.4596 -12.9669 -17.5361
ltibia 35.0239
lfoot -32.281 30.2193
ltoes 36.5163
2626
root 8.76944 15.1336 31.9898 -1.03267 -1.35031 -4.99623
lowerback 4.89229 0.197185 2.80026
upperback 2.76892 0.387107 2.79463
thorax 0.103806 0.203579 1.28129
lowerneck -7.20287 -0.361793 -8.20643
upperneck 48.3038 1.53029 0.576932
head 20.2652 -0.833122 2.07684
rclavicle 1.49089e-015 1.39149e-014
rhumerus -34.4834 12.5425 -87.0638
rradius 29.3126
rwrist 19.0144
rhand -3.19298 -50.8959
rfingers 7.12502
rthumb 22.5287 -79.6015
lclavicle 1.49089e-015 1.39149e-014
lhumerus -34.047 17.0131 80.8119
lradius 33.4186
lwrist -18.5953
lhand -6.97216 -34.5197
lfingers 7.12502
lthumb 18.8976 -5.41773
rfemur 11.3202 11.5339 38.5777
rtibia 8.5693
rfoot -17.0266 -24.6608
rtoes 8.34138
lfemur -28.1686 -13.097 -17.5032
ltibia 34.984
lfoot -33.0213 30.2597
ltoes 38.5482
2627
root 8.78193 15.1326 32.0482 -0.941158 -1.36795 -5.07981
lowerback 4.84354 0.251806 2.89971
upperback 2.71774 0.463644 2.80316
thorax 0.0790547 0.242479 1.23081
lowerneck -7.1359 -0.374384 -8.23286
upperneck 48.318 1.5281 0.552536
head 20.2577 -0.840349 2.06879
rclavicle 4.00054e-015 -1.82882e-014
rhumerus -34.6857 12.6887 -87.1886
rradius 29.4768
rwrist 18.5821
rhand -3.42154 -51.3478
rfingers 7.12502
rthumb 22.3094 -80.0799
lclavicle 4.00054e-015 -1.82882e-014
lhumerus -34.1235 17.1302 80.766
lradius 33.4017
lwrist -18.3727
lhand -7.13099 -34.8016
lfingers 7.12502
lthumb 18.7448 -5.68475
rfemur 11.1965 11.4034 38.5963
rtibia 8.98644
rfoot -17.0807 -24.6486
rtoes 7.50389
lfemur -27.8969 -13.1548 -17.5515
ltibia 34.8839
lfoot -33.5142 30.5735
ltoes 39.5103
2628
root 8.7943 15.1296 32.1053 -0.808448 -1.33418 -5.06003
lowerback 4.78009 0.282423 2.8383
upperback 2.66569 0.500992 2.79842
thorax 0.0602274 0.260252 1.25864
lowerneck -7.20409 -0.382981 -8.17937
upperneck 48.3653 1.56568 0.444138
head 20.3149 -0.830817 2.01195
rclavicle 2.48481e-017 1.23246e-014
rhumerus -34.794 12.6168 -87.2308
rradius 29.5055
rwrist 18.4152
rhand -3.93523 -51.5228
rfingers 7.12502
rthumb 21.8162 -80.3132
lclavicle 2.48481e-017 1.23246e-014
lhumerus -34.4005 17.376 80.69
lradius 33.8141
lwrist -18.4137
lhand -7.03009 -34.7417
lfingers 7.12502
lthumb 18.8419 -5.63431
rfemur 10.9754 11.2386 38.5051
rtibia 9.46245
rfoot -16.9851 -24.7248
rtoes 6.38024
lfemur -27.6489 -13.1593 -17.726
ltibia 34.7535
lfoot -33.7072 30.7972
ltoes 39.6016
2629
root 8.80743 15.1191 32.1637 -0.726391 -1.23754 -4.8881
lowerback 4.71524 0.3162 2.67208
upperback 2.62707 0.537634 2.7282
thorax 0.0553812 0.277278 1.2779
lowerneck -7.19877 -0.386329 -8.15111
upperneck 48.3887 1.5822 0.399059
head 20.3314 -0.823971 1.98748
rclavicle 5.73991e-015 0
rhumerus -34.9678 12.6489 -87.3169
rradius 29.6014
rwrist 18.3319
rhand -3.28837 -51.9279
rfingers 7.12502
rthumb 22.4372 -80.6447
lclavicle 5.73991e-015 0
lhumerus -34.5055 17.2723 80.7094
lradius 34.0443
lwrist -18.2686
lhand -6.71018 -34.7228
lfingers 7.12502
lthumb 19.1495 -5.64553
rfemur 10.8979 11.0008 38.2664
rtibia 9.95964
rfoot -17.3459 -24.5855
rtoes 6.37084
lfemur -27.3856 -13.2096 -18.0326
ltibia 34.6094
lfoot -33.8775 30.7736
ltoes 40.0377
2630
root 8.82249 15.1153 32.2235 -0.656159 -1.19075 -4.84964
lowerback 4.66626 0.341399 2.64827
upperback 2.5813 0.569787 2.71546
thorax 0.0353501 0.292956 1.2767
lowerneck -7.08623 -0.374693 -8.16263
upperneck 48.2935 1.61257 0.353841
head 20.2263 -0.812832 1.96933
rclavicle -2.08724e-015 4.37326e-014
rhumerus -35.218 12.91 -87.4435
rradius 29.7623
rwrist 18.0771
rhand -2.4599 -52.3878
rfingers 7.12502
rthumb 23.2322 -81.0064
lclavicle -2.08724e-015 4.37326e-014
lhumerus -34.5171 17.0421 80.7572
lradius 34.1519
lwrist -17.937
lhand -6.58485 -34.8059
lfingers 7.12502
lthumb 19.2701 -5.74059
rfemur 10.9554 10.8053 38.1582
rtibia 10.2741
rfoot -17.5635 -24.4285
rtoes 6.31891
lfemur -27.1747 -13.4952 -18.1175
ltibia 34.5088
lfoot -34.063 31.249
ltoes 40.2106
2631
root 8.83881 15.1184 32.2856 -0.499117 -1.18944 -4.99508
lowerback 4.59545 0.368415 2.80395
upperback 2.49504 0.612094 2.74802
thorax -0.01247 0.31473 1.22117
lowerneck -7.00769 -0.372954 -8.18607
upperneck 48.1052 1.58962 0.389166
head 20.0633 -0.81174 1.98403
rclavicle -9.31803e-015 1.07344e-014
rhumerus -35.3635 12.8709 -87.4579
rradius 29.7289
rwrist 18.1839
rhand -1.30124 -52.66
rfingers 7.12502
rthumb 24.3434 -81.1339
lclavicle -9.31803e-015 1.07344e-014
lhumerus -34.8374 17.5099 80.5649
lradius 34.6964
lwrist -18.2336
lhand -6.31998 -34.6298
lfingers 7.12502
lthumb 19.5247 -5.59013
rfemur 11.0196 10.4779 38.1707
rtibia 10.2065
rfoot -17.0407 -24.3151
rtoes 5.2529
lfemur -27.0657 -13.9071 -17.9552
ltibia 34.4791
lfoot -34.8026 31.7153
ltoes 40.8866
2632
root 8.85439 15.1187 32.3517 -0.308215 -1.14139 -5.04433
lowerback 4.51263 0.416713 2.90789
upperback 2.35939 0.681777 2.71094
thorax -0.10405 0.349459 1.12154
lowerneck -7.02895 -0.397629 -8.34336
upperneck 48.1218 1.47275 0.672866
head 20.0814 -0.851338 2.13823
rclavicle 1.963e-015 -6.36111e-015
rhumerus -35.5294 12.5798 -87.4659
rradius 29.6917
rwrist 18.3471
rhand -0.43313 -52.8358
rfingers 7.12502
rthumb 25.1754 -81.1955
lclavicle 1.963e-015 -6.36111e-015
lhumerus -34.971 17.3299 80.5858
lradius 34.615
lwrist -18.0094
lhand -6.44968 -34.484
lfingers 7.12502
lthumb 19.4 -5.43172
rfemur 11.1752 10.3098 38.1163
rtibia 9.90979
rfoot -16.8455 -24.2334
rtoes 5.4278
lfemur -27.016 -14.3216 -17.9181
ltibia 34.4886
lfoot -35.4341 32.2149
ltoes 41.0792
2633
root 8.87012 15.1177 32.4208 -0.122678 -1.08649 -5.04496
lowerback 4.1967 0.469635 2.91744
upperback 2.33753 0.738056 2.70505
thorax 0.0500378 0.37894 1.11042
lowerneck -7.13219 -0.417551 -8.44178
upperneck 48.2697 1.44793 0.778402
head 20.2219 -0.871808 2.21095
rclavicle -1.86858e-014 1.98785e-016
rhumerus -35.6268 12.642 -87.5397
rradius 29.7508
rwrist 18.0806
rhand -1.71516 -52.2336
rfingers 7.12502
rthumb 23.9466 -80.7603
lclavicle -1.86858e-014 1.98785e-016
lhumerus -34.9378 17.3356 80.6533
lradius 34.5169
lwrist -18.1121
lhand -6.68917 -34.7052
lfingers 7.12502
lthumb 19.1697 -5.62992
rfemur 11.3869 10.131 38.0299
rtibia 9.68548
rfoot -17.3615 -23.8851
rtoes 6.53184
lfemur -26.9975 -14.9018 -17.8996
ltibia 34.4771
lfoot -36.0826 32.8755
ltoes 41.5732
2634
root 8.88785 15.1163 32.4886 0.0382411 -1.00622 -5.02344
lowerback 4.11346 0.45035 2.84235
upperback 2.20666 0.711204 2.74455
thorax -0.0395818 0.363464 1.19394
lowerneck -7.16062 -0.37281 -8.4083
upperneck 48.4273 1.61555 0.585129
head 20.3437 -0.830306 2.13842
rclavicle 3.8266e-015 0
rhumerus -35.829 12.8218 -87.5606
rradius 29.84
rwrist 18.2714
rhand -2.78145 -51.2775
rfingers 7.12502
rthumb 22.9237 -79.9347
lclavicle 3.8266e-015 0
lhumerus -35.0805 17.5296 80.6557
lradius 34.4296
lwrist -18.2816
lhand -6.74837 -34.8377
lfingers 7.12502
lthumb 19.1128 -5.75685
rfemur 11.5521 9.91885 37.9326
rtibia 9.60992
rfoot -17.5722 -23.6631
rtoes 6.3445
lfemur -26.9488 -15.6851 -17.84
ltibia 34.4354
lfoot -37.6631 32.8923
ltoes 43.6466
2635
root 8.90663 15.1197 32.5532 0.169732 -0.902921 -4.97177
lowerback 3.76924 0.460741 2.92187
upperback 2.28912 0.707337 2.63935
thorax 0.23972 0.365454 1.04523
lowerneck -7.17992 -0.386277 -8.22415
upperneck 48.2858 1.62506 0.409461
head 20.247 -0.807284 2.01424
rclavicle 5.49143e-015 -2.48481e-014
rhumerus -35.708 12.5528 -87.503
rradius 29.9893
rwrist 18.9932
rhand -2.6533 -51.1372
rfingers 7.12502
rthumb 23.0467 -79.7791
lclavicle 5.49143e-015 -2.48481e-014
lhumerus -34.8909 17.6594 80.6077
lradius 34.4166
lwrist -18.4585
lhand -6.69265 -34.8784
lfingers 7.12502
lthumb 19.1664 -5.80278
rfemur 11.6492 9.68059 37.781
rtibia 9.58925
rfoot -17.4254 -23.7337
rtoes 4.97434
lfemur -26.8483 -16.1866 -17.8929
ltibia 34.3856
lfoot -38.6464 32.8748
ltoes 44.4368
2636
root 8.92381 15.128 32.6192 0.338136 -0.852594 -4.97137
lowerback 3.72457 0.526363 2.88404
upperback 2.14505 0.797295 2.66281
thorax 0.116001 0.408356 1.0867
lowerneck -6.99573 -0.424062 -8.20568
upperneck 48.1968 1.58762 0.306548
head 20.1328 -0.822933 1.94918
rclavicle 2.00027e-014 3.33958e-014
rhumerus -36.0778 12.7203 -87.5265
rradius 30.295
rwrist 19.0536
rhand -2.66898 -51.6078
rfingers 7.12502
rthumb 23.0316 -80.2516
lclavicle 2.00027e-014 3.33958e-014
lhumerus -35.1426 17.558 80.682
lradius 34.7705
lwrist -18.387
lhand -6.65862 -34.908
lfingers 7.12502
lthumb 19.1991 -5.83571
rfemur 11.5637 9.5011 37.6913
rtibia 9.80107
rfoot -17.2376 -23.9659
rtoes 3.96179
lfemur -26.7149 -16.1045 -18.0155
ltibia 34.2979
lfoot -38.28 33.0086
ltoes 43.5691
2637
root 8.93959 15.1359 32.6854 0.511241 -0.736046 -5.00336
lowerback 3.51994 0.543581 2.86419
upperback 2.09297 0.812028 2.71092
thorax 0.175889 0.415612 1.14852
lowerneck -6.96928 -0.424362 -8.26982
upperneck 48.1859 1.61758 0.286214
head 20.1171 -0.822413 1.95595
rclavicle -1.29955e-014 -1.19271e-014
rhumerus -36.2106 13.057 -87.5884
rradius 30.4753
rwrist 18.7267
rhand -2.78474 -51.8335
rfingers 7.12502
rthumb 22.9205 -80.4911
lclavicle -1.29955e-014 -1.19271e-014
lhumerus -34.8098 17.3337 80.8422
lradius 34.2253
lwrist -18.0757
lhand -6.82274 -35.0533
lfingers 7.12502
lthumb 19.0413 -5.96531
rfemur 11.338 9.25669 37.6486
rtibia 10.2868
rfoot -16.8796 -24.1401
rtoes 2.33172
lfemur -26.5357 -15.6691 -18.1907
ltibia 34.1601
lfoot -37.0247 32.8023
ltoes 42.648
2638
root 8.95399 15.1368 32.7497 0.581397 -0.546499 -4.96491
lowerback 3.71791 0.471589 2.75677
upperback 1.94487 0.728384 2.71847
thorax -0.0885278 0.370383 1.21614
lowerneck -7.027 -0.347306 -8.29423
upperneck 48.3208 1.79916 0.215648
head 20.2256 -0.770744 1.95826
rclavicle -8.07563e-015 -1.86858e-014
rhumerus -36.3034 13.2118 -87.6727
rradius 30.3499
rwrist 18.6347
rhand -3.15622 -51.5471
rfingers 7.12502
rthumb 22.564 -80.2485
lclavicle -8.07563e-015 -1.86858e-014
lhumerus -34.9898 17.5192 80.7431
lradius 34.3103
lwrist -18.1544
lhand -6.65218 -35.0904
lfingers 7.12502
lthumb 19.2053 -6.01871
rfemur 11.1652 9.15806 37.5996
rtibia 10.943
rfoot -16.857 -24.3296
rtoes 0.658565
lfemur -26.3986 -15.6899 -18.2834
ltibia 34.0007
lfoot -36.1108 32.2757
ltoes 43.8013
